<svg width="1200" height="760" viewBox="0 0 1200 760" fill="none" xmlns="http://www.w3.org/2000/svg">
  <rect width="1200" height="760" rx="40" fill="#07111F"/>
  <rect x="40" y="40" width="1120" height="680" rx="28" fill="#0C1726"/>
  <rect x="78" y="88" width="190" height="584" rx="20" fill="#111F31"/>
  <rect x="306" y="88" width="816" height="128" rx="22" fill="#132236"/>
  <rect x="306" y="250" width="258" height="180" rx="22" fill="#122033"/>
  <rect x="590" y="250" width="258" height="180" rx="22" fill="#122033"/>
  <rect x="874" y="250" width="248" height="180" rx="22" fill="#122033"/>
  <rect x="306" y="464" width="516" height="208" rx="22" fill="#122033"/>
  <rect x="848" y="464" width="274" height="208" rx="22" fill="#122033"/>
  <path d="M346 613C398 552 458 579 514 526C570 473 618 501 664 452C710 403 746 426 782 384" stroke="#22D3EE" stroke-width="10" stroke-linecap="round"/>
  <path d="M346 642C414 590 464 626 530 581C596 536 641 554 696 510C751 466 775 485 802 450" stroke="#A3E635" stroke-width="8" stroke-linecap="round"/>
  <rect x="118" y="130" width="104" height="14" rx="7" fill="#E2E8F0"/>
  <rect x="118" y="186" width="94" height="12" rx="6" fill="#64748B"/>
  <rect x="118" y="232" width="112" height="12" rx="6" fill="#64748B"/>
  <rect x="118" y="278" width="76" height="12" rx="6" fill="#64748B"/>
  <rect x="342" y="130" width="220" height="18" rx="9" fill="#E2E8F0"/>
  <rect x="342" y="168" width="138" height="12" rx="6" fill="#94A3B8"/>
  <circle cx="1064" cy="152" r="32" fill="#22D3EE"/>
  <rect x="346" y="306" width="92" height="12" rx="6" fill="#94A3B8"/>
  <rect x="346" y="344" width="150" height="30" rx="15" fill="#E2E8F0"/>
  <rect x="630" y="306" width="92" height="12" rx="6" fill="#94A3B8"/>
  <rect x="630" y="344" width="150" height="30" rx="15" fill="#E2E8F0"/>
  <rect x="914" y="306" width="92" height="12" rx="6" fill="#94A3B8"/>
  <rect x="914" y="344" width="130" height="30" rx="15" fill="#E2E8F0"/>
</svg>
