<svg width="1200" height="760" viewBox="0 0 1200 760" fill="none" xmlns="http://www.w3.org/2000/svg">
  <rect width="1200" height="760" rx="40" fill="#101010"/>
  <rect x="50" y="52" width="1100" height="656" rx="30" fill="#FAFAFA"/>
  <rect x="82" y="84" width="230" height="592" rx="22" fill="#F1F5F9"/>
  <rect x="342" y="84" width="526" height="592" rx="22" fill="#FFFFFF"/>
  <rect x="898" y="84" width="220" height="592" rx="22" fill="#F8FAFC"/>
  <rect x="124" y="130" width="116" height="14" rx="7" fill="#0F172A"/>
  <rect x="124" y="186" width="142" height="12" rx="6" fill="#64748B"/>
  <rect x="124" y="224" width="106" height="12" rx="6" fill="#64748B"/>
  <rect x="124" y="262" width="132" height="12" rx="6" fill="#64748B"/>
  <rect x="390" y="132" width="288" height="24" rx="12" fill="#0F172A"/>
  <rect x="390" y="206" width="408" height="12" rx="6" fill="#CBD5E1"/>
  <rect x="390" y="246" width="354" height="12" rx="6" fill="#CBD5E1"/>
  <rect x="390" y="286" width="420" height="12" rx="6" fill="#CBD5E1"/>
  <rect x="390" y="352" width="260" height="12" rx="6" fill="#94A3B8"/>
  <rect x="390" y="392" width="390" height="12" rx="6" fill="#CBD5E1"/>
  <rect x="390" y="432" width="316" height="12" rx="6" fill="#CBD5E1"/>
  <rect x="390" y="496" width="168" height="44" rx="22" fill="#0EA5E9"/>
  <rect x="936" y="134" width="108" height="12" rx="6" fill="#0F172A"/>
  <rect x="936" y="188" width="132" height="10" rx="5" fill="#CBD5E1"/>
  <rect x="936" y="220" width="102" height="10" rx="5" fill="#CBD5E1"/>
  <rect x="936" y="296" width="128" height="86" rx="18" fill="#E0F2FE"/>
  <rect x="936" y="414" width="128" height="86" rx="18" fill="#ECFCCB"/>
</svg>
